<svg width="17" height="18" viewBox="0 0 17 18" fill="none" xmlns="http://www.w3.org/2000/svg">
<path d="M16.0833 5.69444V5.19444H15.5833H1.41667H0.916667V5.69444V14.4306C0.916667 15.6195 1.8805 16.5833 3.06944 16.5833H13.9306C15.1195 16.5833 16.0833 15.6195 16.0833 14.4306V5.69444ZM0.916667 4.27778V4.77778H1.41667H15.5833H16.0833V4.27778V3.56944C16.0833 2.3805 15.1195 1.41667 13.9306 1.41667H3.06944C1.8805 1.41667 0.916667 2.3805 0.916667 3.56944V4.27778ZM13.9306 1C15.3496 1 16.5 2.15038 16.5 3.56944V14.4306C16.5 15.8496 15.3496 17 13.9306 17H3.06944C1.65038 17 0.5 15.8496 0.5 14.4306V3.56944C0.5 2.15038 1.65038 1 3.06944 1H13.9306ZM4.48611 11.8611C4.86199 11.8611 5.16667 12.1658 5.16667 12.5417C5.16667 12.9176 4.86199 13.2222 4.48611 13.2222C4.11024 13.2222 3.80556 12.9176 3.80556 12.5417C3.80556 12.1658 4.11024 11.8611 4.48611 11.8611ZM8.5 11.8611C8.8759 11.8611 9.18056 12.1658 9.18056 12.5417C9.18056 12.9176 8.8759 13.2222 8.5 13.2222C8.1241 13.2222 7.81944 12.9176 7.81944 12.5417C7.81944 12.1658 8.1241 11.8611 8.5 11.8611ZM4.48611 8.08333C4.86199 8.08333 5.16667 8.388 5.16667 8.76389C5.16667 9.13978 4.86199 9.44444 4.48611 9.44444C4.11024 9.44444 3.80556 9.13978 3.80556 8.76389C3.80556 8.388 4.11024 8.08333 4.48611 8.08333ZM8.5 8.08333C8.8759 8.08333 9.18056 8.38799 9.18056 8.76389C9.18056 9.13979 8.8759 9.44444 8.5 9.44444C8.1241 9.44444 7.81944 9.13979 7.81944 8.76389C7.81944 8.38799 8.1241 8.08333 8.5 8.08333ZM12.5139 8.08333C12.8898 8.08333 13.1944 8.38799 13.1944 8.76389C13.1944 9.13979 12.8898 9.44444 12.5139 9.44444C12.138 9.44444 11.8333 9.13979 11.8333 8.76389C11.8333 8.38799 12.138 8.08333 12.5139 8.08333Z" fill="#333333" stroke="#333333"/>
</svg>
