<svg xmlns="http://www.w3.org/2000/svg" width="359" height="188" viewBox="0 0 359 188" fill="none"><g filter="url(#filter0_d_1661_78464)"><g clip-path="url(#clip0_1661_78464)"><rect x="4" y="0.000976562" width="351" height="180" fill="url(#paint0_linear_1661_78464)"></rect><rect x="4" y="110.001" width="351" height="70" fill="#272B6B"></rect> <g style="mix-blend-mode: plus-lighter;"><path opacity="0.1" d="M244.398 -31L225.545 -31L135.568 58.9469C126.999 74.3664 139.138 82.79 146.279 85.0743L174.13 85.0743L121 211H146.279L246.112 126.621C253.475 106.919 237.542 101.35 228.545 101.35C252.11 85.0743 236.257 67.9416 228.545 65.8H202.837L244.398 -31Z" stroke="#C8BAFF" stroke-width="1.6"></path><path opacity="0.2" d="M234.398 -31L215.545 -31L125.568 58.9469C116.999 74.3664 129.138 82.79 136.279 85.0743L164.13 85.0743L111 211H136.279L236.112 126.621C243.475 106.919 227.542 101.35 218.545 101.35C242.11 85.0743 226.257 67.9416 218.545 65.8H192.837L234.398 -31Z" stroke="#C8BAFF" stroke-width="1.6"></path></g><g opacity="0.2" style="mix-blend-mode: screen;"><mask id="path-12-inside-1_1661_78464" fill="white"><path d="M4 12C4 5.37258 9.37258 0 16 0H343C349.627 0 355 5.37258 355 12V168C355 174.627 349.627 180 343 180H16C9.37258 180 4 174.627 4 168V12Z"></path></mask><path d="M4 12C4 3.71573 10.7157 -3 19 -3H340C348.284 -3 355 3.71573 355 12C355 7.02944 349.627 3 343 3H16C9.37258 3 4 7.02944 4 12ZM355 168C355 176.284 348.284 183 340 183H19C10.7157 183 4 176.284 4 168C4 172.971 9.37258 177 16 177H343C349.627 177 355 172.971 355 168ZM4 180V0V180ZM355 0V180V0Z" fill="url(#paint1_linear_1661_78464)" mask="url(#path-12-inside-1_1661_78464)"></path></g></g></g><defs><filter id="filter0_d_1661_78464" x="0" y="0.000976562" width="359" height="188" filterUnits="userSpaceOnUse" color-interpolation-filters="sRGB"><feFlood flood-opacity="0" result="BackgroundImageFix"></feFlood><feColorMatrix in="SourceAlpha" type="matrix" values="0 0 0 0 0 0 0 0 0 0 0 0 0 0 0 0 0 0 127 0" result="hardAlpha"></feColorMatrix><feOffset dy="4"></feOffset><feGaussianBlur stdDeviation="2"></feGaussianBlur><feComposite in2="hardAlpha" operator="out"></feComposite><feColorMatrix type="matrix" values="0 0 0 0 0 0 0 0 0 0 0 0 0 0 0 0 0 0 0.25 0"></feColorMatrix><feBlend mode="normal" in2="BackgroundImageFix" result="effect1_dropShadow_1661_78464"></feBlend><feBlend mode="normal" in="SourceGraphic" in2="effect1_dropShadow_1661_78464" result="shape"></feBlend></filter><linearGradient id="paint0_linear_1661_78464" x1="-2" y1="48.001" x2="348" y2="180.001" gradientUnits="userSpaceOnUse"><stop stop-color="#405AFB"></stop><stop offset="0.514115" stop-color="#8686FF"></stop><stop offset="1" stop-color="#405AFB"></stop></linearGradient><linearGradient id="paint1_linear_1661_78464" x1="8.5" y1="48.5" x2="355" y2="48.5" gradientUnits="userSpaceOnUse"><stop stop-color="#E8E8FF"></stop><stop offset="0.510417" stop-color="#AFAFFF"></stop><stop offset="1" stop-color="#CCCCFF"></stop></linearGradient><clipPath id="clip0_1661_78464"><path d="M4 12.001C4 5.37356 9.37258 0.000976562 16 0.000976562H343C349.627 0.000976562 355 5.37356 355 12.001V168.001C355 174.628 349.627 180.001 343 180.001H16C9.37258 180.001 4 174.628 4 168.001V12.001Z" fill="white"></path></clipPath></defs></svg>